<svg width="59" height="15" viewBox="0 0 59 15" fill="none" xmlns="http://www.w3.org/2000/svg">
<path d="M6.768 14.74C6 14.74 5.248 14.652 4.512 14.476C3.776 14.3 3.112 14.02 2.52 13.636C1.928 13.236 1.448 12.724 1.08 12.1C0.728002 11.476 0.552002 10.724 0.552002 9.84402H3.912C3.912 9.94002 3.944 10.092 4.008 10.3C4.088 10.492 4.232 10.7 4.44 10.924C4.664 11.148 4.976 11.34 5.376 11.5C5.792 11.644 6.344 11.716 7.032 11.716C7.336 11.716 7.648 11.692 7.968 11.644C8.288 11.596 8.56 11.5 8.784 11.356C9.008 11.196 9.12 10.956 9.12 10.636C9.12 10.3 8.96 10.036 8.64 9.84402C8.336 9.65202 7.928 9.50002 7.416 9.38802C6.92 9.26002 6.368 9.13202 5.76 9.00402C5.168 8.87602 4.576 8.71602 3.984 8.52402C3.392 8.33202 2.848 8.07602 2.352 7.75602C1.872 7.42002 1.496 6.99602 1.224 6.48402C0.968002 5.95602 0.864002 5.30002 0.912002 4.51602C0.992002 3.33202 1.552 2.41202 2.592 1.75602C3.632 1.08402 5.08 0.748024 6.936 0.748024C7.928 0.748024 8.856 0.924024 9.72 1.27602C10.6 1.62802 11.312 2.16402 11.856 2.88402C12.416 3.60402 12.696 4.51602 12.696 5.62002H9.456C9.456 5.12402 9.288 4.75602 8.952 4.51602C8.632 4.26002 8.24 4.09202 7.776 4.01202C7.328 3.93202 6.92 3.89202 6.552 3.89202C5.96 3.89202 5.464 3.96402 5.064 4.10802C4.68 4.25202 4.488 4.53202 4.488 4.94802C4.488 5.31602 4.648 5.60402 4.968 5.81202C5.288 6.00402 5.704 6.16402 6.216 6.29202C6.728 6.40402 7.288 6.52402 7.896 6.65202C8.52 6.76402 9.136 6.90802 9.744 7.08402C10.352 7.26002 10.896 7.50802 11.376 7.82802C11.872 8.13202 12.256 8.54002 12.528 9.05202C12.816 9.56402 12.928 10.22 12.864 11.02C12.784 12.188 12.192 13.1 11.088 13.756C10 14.412 8.56 14.74 6.768 14.74ZM19.7516 14.74C18.5836 14.74 17.6076 14.524 16.8236 14.092C16.0396 13.644 15.4556 13.036 15.0716 12.268C14.6876 11.5 14.4956 10.628 14.4956 9.65203C14.4796 8.66003 14.6636 7.78802 15.0476 7.03602C15.4316 6.26802 16.0156 5.66002 16.7996 5.21202C17.5996 4.76402 18.5836 4.54002 19.7516 4.54002C21.4636 4.54002 22.7596 5.01202 23.6396 5.95602C24.5356 6.88402 24.9836 8.11603 24.9836 9.65203C24.9836 10.612 24.7916 11.476 24.4076 12.244C24.0396 13.012 23.4716 13.62 22.7036 14.068C21.9356 14.516 20.9516 14.74 19.7516 14.74ZM19.7516 11.956C20.3436 11.956 20.7836 11.836 21.0716 11.596C21.3596 11.356 21.5436 11.052 21.6236 10.684C21.7196 10.3 21.7676 9.91602 21.7676 9.53202C21.7676 9.13202 21.7196 8.74802 21.6236 8.38002C21.5436 8.01202 21.3596 7.70802 21.0716 7.46802C20.7836 7.21202 20.3436 7.08402 19.7516 7.08402C19.1596 7.08402 18.7116 7.21202 18.4076 7.46802C18.1196 7.70802 17.9276 8.01202 17.8316 8.38002C17.7516 8.74802 17.7116 9.13202 17.7116 9.53202C17.7116 9.91602 17.7516 10.3 17.8316 10.684C17.9276 11.052 18.1196 11.356 18.4076 11.596C18.7116 11.836 19.1596 11.956 19.7516 11.956ZM31.5909 14.74C30.6629 14.74 29.7989 14.556 28.9989 14.188C28.2149 13.82 27.5829 13.26 27.1029 12.508C26.6229 11.756 26.3829 10.82 26.3829 9.70002C26.4149 8.59602 26.6629 7.66002 27.1269 6.89202C27.5909 6.12402 28.2149 5.54002 28.9989 5.14002C29.7829 4.72402 30.6549 4.51602 31.6149 4.51602C32.7349 4.51602 33.6629 4.73202 34.3989 5.16402C35.1509 5.59602 35.7109 6.14002 36.0789 6.79602C36.4629 7.43602 36.6549 8.08402 36.6549 8.74002H33.6069C33.4469 7.81202 32.8229 7.34802 31.7349 7.34802C31.0149 7.34802 30.4869 7.54002 30.1509 7.92402C29.8149 8.30802 29.6469 8.80402 29.6469 9.41202C29.6469 10.164 29.8149 10.764 30.1509 11.212C30.4869 11.66 31.0309 11.884 31.7829 11.884C32.2149 11.884 32.6069 11.764 32.9589 11.524C33.3109 11.284 33.5269 10.892 33.6069 10.348H36.6549C36.6549 11.052 36.4629 11.74 36.0789 12.412C35.7109 13.084 35.1509 13.644 34.3989 14.092C33.6469 14.524 32.7109 14.74 31.5909 14.74ZM40.2628 3.43602C39.5748 3.45202 39.1188 3.29202 38.8948 2.95602C38.6708 2.62002 38.5588 2.22002 38.5588 1.75602C38.5588 1.30802 38.6708 0.924023 38.8948 0.604023C39.1348 0.284023 39.5908 0.124023 40.2628 0.124023C40.9188 0.124023 41.3588 0.284023 41.5828 0.604023C41.8068 0.924023 41.9188 1.30802 41.9188 1.75602C41.9188 2.23602 41.8068 2.63602 41.5828 2.95602C41.3588 3.26002 40.9188 3.42002 40.2628 3.43602ZM38.5828 14.5V4.56402H41.9428V14.5H38.5828ZM47.2776 14.74C45.9176 14.74 44.9736 14.292 44.4456 13.396C43.9336 12.484 43.6776 11.252 43.6776 9.70002C43.6776 8.66002 43.7896 7.75602 44.0136 6.98802C44.2376 6.22002 44.6136 5.62802 45.1416 5.21202C45.6696 4.78002 46.3816 4.56402 47.2776 4.56402C47.9336 4.56402 48.4616 4.66002 48.8616 4.85202C49.2776 5.02802 49.5976 5.23602 49.8216 5.47602C50.0456 5.71602 50.1976 5.93202 50.2776 6.12402C50.3576 6.30002 50.3976 6.38802 50.3976 6.38802H50.4456V4.56402H53.9016V14.5H50.9736L50.4456 13.156H50.3976C50.4136 13.156 50.3736 13.236 50.2776 13.396C50.1816 13.556 50.0136 13.74 49.7736 13.948C49.5496 14.156 49.2296 14.34 48.8136 14.5C48.4136 14.66 47.9016 14.74 47.2776 14.74ZM48.6936 11.98C49.2376 11.98 49.6296 11.876 49.8696 11.668C50.1256 11.444 50.2856 11.156 50.3496 10.804C50.4136 10.452 50.4456 10.092 50.4456 9.72402C50.4456 9.34002 50.4136 8.98002 50.3496 8.64402C50.2856 8.29202 50.1256 8.01202 49.8696 7.80402C49.6296 7.59602 49.2376 7.49202 48.6936 7.49202C48.1496 7.49202 47.7496 7.60402 47.4936 7.82802C47.2536 8.03602 47.1016 8.30802 47.0376 8.64402C46.9736 8.98002 46.9416 9.34002 46.9416 9.72402C46.9416 10.108 46.9736 10.476 47.0376 10.828C47.1016 11.164 47.2536 11.444 47.4936 11.668C47.7496 11.876 48.1496 11.98 48.6936 11.98ZM55.7128 14.5V0.988023H58.9768V14.5H55.7128Z" fill="white" fill-opacity="0.9"/>
</svg>
